<?xml version="1.0" encoding="utf-8"?>
<!-- Generator: Adobe Illustrator 21.1.0, SVG Export Plug-In . SVG Version: 6.00 Build 0)  -->
<svg version="1.1" id="Слой_1" xmlns="http://www.w3.org/2000/svg" xmlns:xlink="http://www.w3.org/1999/xlink" x="0px" y="0px"
	 viewBox="0 0 100 100" style="enable-background:new 0 0 100 100;" xml:space="preserve">
<style type="text/css">
	.st0{fill:#6387BA;}
	.st1{fill:#FFFFFF;}
	.st2{fill:#FCB230;}
	.st3{fill:#DE667B;}
	.st4{fill:#8C3545;}
	.st5{fill:#25AADD;}
	.st6{fill:#421400;}
	.st7{fill:#1B7EA3;}
	.st8{fill:#AD7A21;}
</style>
<g>
	<ellipse class="st0" cx="49.3" cy="90.5" rx="28.5" ry="6"/>
	<g>
		<path class="st1" d="M50.3,31.7l-0.5-0.7l-0.4,0.4c-3.9,3.6-9.6,8.1-14.7,3.8c-2.2-1.8-3-4.9-2.1-7.6c0.9-2.6,3-4.4,5.6-5
			c3.8,1.7,7.9,3,10.6,5.9l0.9,1.1l0,0.1l0.1-0.1l0,0l0,0l0.8-0.8c3.2-3,7.7-3.5,12-4.8c1.5,1.7,3,3.4,3.4,5.8
			c0.5,2.8-0.7,5.4-3.3,6.6C57.8,38.8,53.4,35.3,50.3,31.7z"/>
		<path class="st2" d="M53,35.6c-0.7,0.9-1.5,1.7-2.4,2.5c-0.4,0.4-0.8,0.7-1.3,1c-1-1.2-2.1-2.4-3.1-3.6c1.3-1,2.5-2.1,3.7-3.3
			C50.8,33.5,51.8,34.7,53,35.6z"/>
		<path class="st1" d="M49.8,33.3v4.3c0,0,1.2-0.9,2.3-2.1C52.1,35.5,50.3,34.2,49.8,33.3z"/>
		<path class="st3" d="M56.9,13.2c1.4,0.4,2.8,0.9,4.1,1.6c-1.2,1.8-2.8,3.2-4.4,4.6c-2.6,2.3-5.6,5-6.6,8.4l-0.3,1.6l-0.1-1.2
			c-0.4-4-2-7.8-4.4-11c-1-1.3-2.1-2.6-3.1-3.8C46.8,11.9,52,11.8,56.9,13.2z"/>
		<path class="st1" d="M67.5,24.5c-2-6.5-9.2-10.7-15.7-11.2c-7.5-0.6-15.3,3.6-20.5,8.6c0,0,0,0.1,0.1,0.1c3.2-1.5,6-3.6,9.2-5
			c3.2-1.5,6.7-2.5,10.3-2.4c3.4,0.1,6.8,1.2,9.7,3.1c2.8,1.9,4.6,4.4,6.5,7.1C67.1,25,67.6,24.8,67.5,24.5z"/>
		<path class="st3" d="M23.8,37.6c0.6-3.4,1.5-6.9,2.9-10.1c1.4-3.2,3.3-6.2,5.8-8.6c1.4,1.5,3.1,2.5,5,3.4
			c-5.5,1.1-8.2,8.1-4.3,12.7c2.1,2.5,5.3,3.3,8.4,2.6c1.5-0.4,2.9-1.1,4.2-1.9c0.9,1.3,1.7,2.7,2.7,4l0.7,0.9L50,40
			c1.4-1.1,2.5-2.6,3.4-4c0.6,0.5,1.3,0.9,2,1.2c2.6,1.2,5.7,1.5,8.3,0c5.3-3,3.6-9.6,0-13.3c1.5-0.5,3-1.1,4.3-2c1,1.9,1.8,4,2.5,6
			c1.9,5.3,3.1,10.7,3.6,16.2c-4.5,3.4-9.6,5.9-15.3,7.2c-8.2,1.9-16.8,1.4-24.8-1.1c-3.9-1.3-7.5-3-11.1-5
			C23.1,42.6,23.4,40.1,23.8,37.6z"/>
		<path class="st3" d="M65.7,55.6c1.9-0.2,3.2,1.7,3.7,3.4c0.5,1.6,0.5,3.2,0.1,4.8c-0.3,0.2-0.5,0.3-0.8,0.5
			c-6.8,4-15.1,3.5-22.2,0.6c3.6-2.4,7-5.2,11-6.7c0.1,0.1,0.2,0.2,0.4,0.2C60.8,58.5,63.6,57.5,65.7,55.6z"/>
		<path class="st3" d="M39.9,67.3c-5.2,1.7-10.7,0.5-14.7-2.7c0,0,0,0,0-0.1c-0.3-2.3,0.4-4.7,2.1-6.2c1.5-1.4,3.3-1.8,5.2-2.1
			c2.9,1.3,6.4,0.8,9.5-0.1c4.8-1.4,12.5-4.5,15.8,1C51.2,59.3,46.5,65.1,39.9,67.3z"/>
		<path class="st1" d="M35.7,87.7c0,0,0.1,0,0.1,0c0.1,0,0.3-0.1,0.4-0.1c-0.1,0-0.3,0-0.4,0.1C35.8,87.7,35.7,87.7,35.7,87.7
			L35.7,87.7z"/>
		<path class="st1" d="M28.3,90.8c0.1,0,0.2-0.1,0.3-0.1C28.5,90.7,28.4,90.8,28.3,90.8z"/>
		<path class="st1" d="M29.5,90.4c0,0-0.2,0.1-0.5,0.2C29.3,90.5,29.5,90.4,29.5,90.4c1.2-0.4,2.4-0.7,3.6-1.1
			C32,89.6,30.8,90,29.5,90.4z"/>
		<path class="st1" d="M32.3,92.7c-0.1,0.1-0.3,0.2-0.4,0.3C32,92.9,32.2,92.8,32.3,92.7c0.1-0.1,0.2-0.2,0.2-0.2
			C32.5,92.5,32.4,92.6,32.3,92.7z"/>
		<path class="st1" d="M36.3,89c0.1,0,0.2,0,0.2,0C36.4,89,36.4,89,36.3,89z"/>
		<path class="st1" d="M40.6,91.1c-0.2,0.1-0.3,0.2-0.4,0.2C40.3,91.2,40.5,91.2,40.6,91.1c0.3-0.2,0.4-0.4,0.4-0.6
			C41,90.6,40.9,90.8,40.6,91.1z"/>
		<path class="st1" d="M41,90.4c0-0.1,0-0.1-0.1-0.2C41,90.2,41,90.3,41,90.4z"/>
		<path class="st1" d="M39.4,88.9c0.3,0.2,0.6,0.4,0.8,0.6C40,89.3,39.7,89.1,39.4,88.9c-0.9-0.6-3.2-0.8-3.3-0.8h0
			C36.3,88.1,38.5,88.3,39.4,88.9z"/>
		<path class="st1" d="M58.5,88.9c0.9-0.6,3.2-0.8,3.3-0.8l0,0C61.7,88.1,59.5,88.3,58.5,88.9c-0.3,0.2-0.6,0.4-0.8,0.6
			C57.9,89.3,58.2,89.1,58.5,88.9z"/>
		<path class="st1" d="M57.3,89.9c-0.1,0.1-0.1,0.1-0.2,0.2C57.2,90,57.2,90,57.3,89.9z"/>
		<path class="st1" d="M57.3,91.1c-0.2-0.2-0.4-0.3-0.4-0.5c0-0.1,0-0.1,0-0.2c0,0.1,0,0.1,0,0.2C57,90.7,57.1,90.9,57.3,91.1
			c0.2,0.1,0.3,0.2,0.4,0.2C57.6,91.2,57.5,91.2,57.3,91.1z"/>
		<path class="st1" d="M61.7,89c-0.1,0-0.2,0-0.2,0C61.5,89,61.6,89,61.7,89z"/>
		<path class="st1" d="M65.6,92.6c-0.1-0.1-0.1-0.1-0.2-0.2C65.5,92.5,65.5,92.5,65.6,92.6c0.2,0.2,0.5,0.4,0.7,0.5
			C66,93,65.8,92.8,65.6,92.6z"/>
		<path class="st1" d="M68.4,90.4c-1.2-0.4-2.4-0.7-3.6-1.1c0,0,0,0,0,0c0,0,0,0,0,0C66,89.6,67.2,90,68.4,90.4c0,0,0.1,0,0.3,0.1
			C68.6,90.4,68.4,90.4,68.4,90.4z"/>
		<path class="st1" d="M62.2,87.7c-0.1,0-0.3-0.1-0.4-0.1C61.9,87.6,62,87.7,62.2,87.7c0,0,0.1,0,0.1,0v0
			C62.2,87.7,62.2,87.7,62.2,87.7z"/>
		<path class="st4" d="M48.7,84.2c-8.2-0.2-14.9-4-20.4-9.6c1.8,0.5,3.6,0.9,5.3,1.2c5.4,1,10.9,1.2,16.3,1.1
			c5.6-0.1,11.4-0.4,16.9-1.1c0.2,0,0.3,0,0.5-0.1C63.3,81.7,55.8,84.4,48.7,84.2z"/>
		<path class="st5" d="M22.2,45.4l0.5,0.4c6.1,4.6,14,6.9,21.5,7.6c0.7,0.1,1.4,0.1,2.1,0.1C41.2,55,34,58.5,29.8,53.3
			c-0.2-0.2-0.6,0.1-0.4,0.3c0.6,0.9,1.3,1.5,2.1,2c-1.9-0.1-4,0.9-5.3,2.2c-1.5,1.6-2.2,3.7-2.1,5.8c-1.7-1.7-3.1-3.8-4-6.2
			C18.8,53.5,18.9,48.4,22.2,45.4z M72.8,69c-0.1,1.4-0.3,2.9-0.4,4.3c-2.4,0.9-5,1.3-7.7,1.6c-5.2,0.5-10.5,0.8-15.7,0.9
			c-5.2,0.1-10.5-0.2-15.7-1.1c-2.5-0.5-4.9-1.1-7.3-1.9c-1.1-0.4-2.2-0.8-3.2-1.3c0-0.7-0.1-1.4-0.1-2.2c-0.2-2.1-0.3-4.3-0.6-6.4
			c0.5,0.6,1,1.2,1.6,1.7c3.1,2.9,7.2,4.4,11.4,4.3c4-0.1,7.5-1.7,10.8-3.8c8,4.2,18.1,4.3,25.4-1.5c0.7-0.6,1.4-1.2,2.1-1.9
			C73.1,64.3,73,66.6,72.8,69z M77.3,50.3c-0.1,1.9-0.5,3.8-1.2,5.5c-1.2,2.8-3.1,5.3-5.4,7.1c0.4-1.9,0-4.1-1.1-5.8
			c-0.7-1.2-2-2.2-3.4-2.1c1.3-1.3,2.2-3,2.7-4.9c0.1-0.3-0.4-0.4-0.5-0.1c-1.4,4.1-5,6.9-9.3,7.3c0-0.2-0.1-0.3-0.2-0.4
			c-1-2-2.7-3.1-4.6-3.7c5.1-0.7,10.1-2.2,14.7-4.5c1.8-0.9,3.5-1.9,5.1-3.1l1.2-0.9C77.4,44.9,77.4,48.8,77.3,50.3z"/>
		<g>
			<path class="st2" d="M69.1,89.6c0.3,0.1,1.6,0.7,1.1,1.3c0,0.1-1.7-0.5-1.8-0.6c-1.2-0.4-2.4-0.7-3.6-1.1c0,0-0.5,0.1-0.3,0.2
				l0,0c0,0.1,0.3,0.3,0.4,0.3c0.5,0.5,1,1,1.4,1.7c0.2,0.3,0.6,0.9,0.5,1.1c-0.2,1.1-1.2-0.1-1.3-0.2c-0.9-0.9-1.7-1.8-2.7-2.6
				c-0.4-0.4-0.6-0.7-0.9-0.8c-0.2,0-0.4,0-0.4,0c-0.6,0.1-1.2,0.6-1.7,0.9c-0.3,0.3-0.7,0.5-1.1,0.8c-0.5,0.4-0.8,0.7-1.3,0.3
				c-0.8-0.6-0.2-1,0.4-1.5c0.3-0.2,0.5-0.4,0.8-0.6c0.9-0.6,3.2-0.8,3.3-0.8C64.4,88.2,66.8,88.4,69.1,89.6z"/>
			<path class="st2" d="M62.3,87.7c0,0-0.1,0-0.1,0c-0.3-0.1-0.6-0.1-0.8-0.1c0.1-1-0.1-1.9-0.1-2.9c0-0.5-0.4-2.1-0.4-2.7
				c0.3-0.2,0.9-0.2,1.2-0.5C62,83.3,62,85.9,62.3,87.7z"/>
			<g>
				<path class="st6" d="M56.2,90.7c0,0.8,0.7,1.4,1.4,1.3c1-0.1,3.2-2.4,4.3-2.2c0.9,1.1,2,2.1,3,3.1c0.5,0.5,1.3,1.3,2,0.8
					c1.1-0.8-0.1-2.4-1.2-3.5c0.8,0.3,1.6,0.6,2.4,0.8c0.7,0.3,1.8,0.9,2.6,0.8c0.9-0.1,1.3-0.8,0.9-1.5c-0.6-1.3-3-2.1-4.3-2.4
					c-1.7-0.5-3.6-0.6-5.3-0.2c-1.3-0.3-2.5-0.1-3.7,0.5C57.6,88.6,56.2,89.5,56.2,90.7z M57.7,89.5c0.3-0.2,0.5-0.4,0.8-0.6
					c0.9-0.6,3.2-0.8,3.3-0.8c2.6,0.1,4.9,0.2,7.3,1.5c0.3,0.1,1.6,0.7,1.1,1.3c0,0.1-1.7-0.5-1.8-0.6c-1.2-0.4-2.4-0.7-3.6-1.1
					c0,0-0.5,0.1-0.3,0.2l0,0c0,0.1,0.3,0.3,0.4,0.3c0.5,0.5,1,1,1.4,1.7c0.2,0.3,0.6,0.9,0.5,1.1c-0.2,1.1-1.2-0.1-1.3-0.2
					c-0.9-0.9-1.7-1.8-2.7-2.6c-0.4-0.4-0.6-0.7-0.9-0.8c-0.2,0-0.4,0-0.4,0c-0.6,0.1-1.2,0.6-1.7,0.9c-0.3,0.3-0.7,0.5-1.1,0.8
					c-0.5,0.4-0.8,0.7-1.3,0.3C56.6,90.5,57.1,90.1,57.7,89.5z"/>
				<path class="st6" d="M62.1,81.5c0.3,2.1,0.6,4.2,0.7,6.4c0,0.3-0.4,0.3-0.5,0.1c-0.3-2.1-0.4-4.2-0.4-6.4
					C61.9,81.4,62.1,81.3,62.1,81.5z"/>
				<path class="st6" d="M60.5,82.1c0-0.3,0.4-0.4,0.5-0.1c0.2,0.9,0.2,1.8,0.3,2.7c0.1,1,0.2,2,0.1,3c0,0.1-0.1,0.1-0.2,0
					C60.6,86.2,60.3,83.8,60.5,82.1z"/>
			</g>
		</g>
		<g>
			<path class="st2" d="M28.9,89.6c-0.3,0.1-1.6,0.7-1.1,1.3c0,0.1,1.7-0.5,1.8-0.6c1.2-0.4,2.4-0.7,3.6-1.1c0,0,0.5,0.1,0.3,0.2
				l0,0c0,0.1-0.3,0.3-0.4,0.3c-0.5,0.5-1,1-1.4,1.7c-0.2,0.3-0.6,0.9-0.5,1.1c0.2,1.1,1.2-0.1,1.3-0.2c0.9-0.9,1.7-1.8,2.7-2.6
				c0.4-0.4,0.6-0.7,0.9-0.8c0.2,0,0.4,0,0.4,0c0.6,0.1,1.2,0.6,1.7,0.9c0.3,0.3,0.7,0.5,1.1,0.8c0.5,0.4,0.8,0.7,1.3,0.3
				c0.8-0.6,0.2-1-0.4-1.5c-0.3-0.2-0.5-0.4-0.8-0.6c-0.9-0.6-3.2-0.8-3.3-0.8C33.6,88.2,31.2,88.4,28.9,89.6z"/>
			<path class="st2" d="M35.7,87.7c0,0,0.1,0,0.1,0c0.3-0.1,0.6-0.1,0.8-0.1c-0.1-1,0.1-1.9,0.1-2.9c0-0.5,0.4-2.1,0.4-2.7
				c-0.3-0.2-0.9-0.2-1.2-0.5C35.9,83.3,35.9,85.9,35.7,87.7z"/>
			<g>
				<path class="st6" d="M39.5,88.1c-1.2-0.6-2.4-0.7-3.7-0.5c-1.7-0.5-3.6-0.3-5.3,0.2c-1.3,0.4-3.6,1.1-4.3,2.4
					c-0.4,0.8,0,1.5,0.9,1.5c0.8,0.1,1.8-0.5,2.6-0.8c0.8-0.3,1.6-0.6,2.4-0.8c-1.1,1.1-2.3,2.7-1.2,3.5c0.8,0.5,1.5-0.3,2-0.8
					c1-1,2.1-2,3-3.1c1.1-0.2,3.3,2,4.3,2.2c0.8,0.1,1.5-0.4,1.4-1.3C41.7,89.5,40.4,88.6,39.5,88.1z M40.6,91.1
					c-0.5,0.4-0.8,0.1-1.3-0.3c-0.4-0.3-0.7-0.5-1.1-0.8c-0.5-0.4-1.1-0.8-1.7-0.9c-0.1,0-0.3-0.1-0.4,0c-0.3,0.1-0.6,0.4-0.9,0.8
					c-0.9,0.8-1.8,1.7-2.7,2.6c-0.1,0.1-1.1,1.3-1.3,0.2c0-0.3,0.4-0.9,0.5-1.1c0.4-0.6,0.9-1.2,1.4-1.7c0.1,0,0.4-0.2,0.4-0.3l0,0
					c0.2-0.1-0.3-0.3-0.3-0.2c-1.2,0.4-2.4,0.7-3.6,1.1c-0.1,0-1.8,0.6-1.8,0.6c-0.5-0.6,0.9-1.2,1.1-1.3c2.4-1.2,4.7-1.4,7.3-1.5
					c0.1,0,2.4,0.2,3.3,0.8c0.3,0.2,0.6,0.4,0.8,0.6C40.9,90.1,41.4,90.5,40.6,91.1z"/>
				<path class="st6" d="M35.9,81.5c-0.3,2.1-0.6,4.2-0.7,6.4c0,0.3,0.4,0.3,0.5,0.1c0.3-2.1,0.4-4.2,0.4-6.4
					C36.1,81.4,35.9,81.3,35.9,81.5z"/>
				<path class="st6" d="M37.5,82.1c0-0.3-0.4-0.4-0.5-0.1c-0.2,0.9-0.2,1.8-0.3,2.7c-0.1,1-0.2,2-0.1,3c0,0.1,0.1,0.1,0.2,0
					C37.4,86.2,37.7,83.8,37.5,82.1z"/>
			</g>
		</g>
		<g>
			<g>
				<path class="st6" d="M60.3,29.1c-0.1-0.9-0.4-2.1-1.5-2.1c-0.5,0-0.8,0.3-1,0.6c0,0,0,0,0,0c-0.6,0.8-0.3,2.4-0.1,3.2
					c0.2,0.8,0.9,1.7,1.8,1.2C60.5,31.6,60.4,30,60.3,29.1z"/>
				<path class="st1" d="M59.5,27.9c-0.2-0.3-0.6-0.3-0.9-0.2c-0.6,0.3-0.5,1.2,0.1,1.5c0.1,0,0.1,0.1,0.2,0.1c0.1,0,0.2,0,0.3,0
					c0.3-0.1,0.4-0.4,0.5-0.7C59.7,28.3,59.7,28.1,59.5,27.9z"/>
			</g>
			<g>
				<path class="st6" d="M38.9,29.1c0.1-0.9,0.4-2.1,1.5-2.1c0.5,0,0.8,0.3,1,0.6c0,0,0,0,0,0c0.6,0.8,0.3,2.4,0.1,3.2
					c-0.2,0.8-0.9,1.7-1.8,1.2C38.7,31.6,38.8,30,38.9,29.1z"/>
				<path class="st1" d="M39.7,27.9c0.2-0.3,0.6-0.3,0.9-0.2c0.6,0.3,0.5,1.2-0.1,1.5c-0.1,0-0.1,0.1-0.2,0.1c-0.1,0-0.2,0-0.3,0
					c-0.3-0.1-0.4-0.4-0.5-0.7C39.5,28.3,39.6,28.1,39.7,27.9z"/>
			</g>
		</g>
		<path class="st6" d="M73,8l-0.4-1.6l-0.5,1c-1.5,2.7-3.7,5-6.3,6.7c-0.1-2.2-0.8-4.4-2-6.2l-1.3-1.6l0.2,1.4
			c0.2,1.7,0,3.5-0.7,5.2c-1.1,2.8-3.3,4.8-5.5,6.7c-2.6,2.3-5.6,5-6.6,8.4l-0.3,2l0.8-0.9c4.6-4.3,12.2-3.6,17.5-7.1
			c2.7-1.8,4.4-4.6,5.1-7.7C73.5,12,73.4,10,73,8z M71.7,14.9c-1.1,3.7-3.9,6.3-7.5,7.6c-3.9,1.4-9.1,1.9-12.8,4.2
			c2-3.6,5.9-6.1,8.7-9.2c2.1-2.2,3.4-5.1,3.7-8c0.3,0.7,0.5,1.4,0.7,2.2c0.2,1,0.3,2,0.2,2.9l-0.1,0.8l1.2-0.6
			c2.6-1.4,4.8-3.4,6.5-5.9C72.4,11.1,72.3,13,71.7,14.9z"/>
		<path class="st6" d="M45.2,17.2c-2.8-3.8-6.6-7.2-8-11.8l-0.3-1l-0.3,1.4c-0.3,1.7-0.5,3.4-0.4,5.1C35.4,9.9,34.6,9,34,7.9
			c-1-1.7-1.6-3.6-2-5.5l-0.1-0.8l-0.5,0.6c-3.8,4.9-3.3,12.2,1,16.7c4.4,4.7,12.1,5.1,16.4,9.8l0.9,1.1l-0.1-1.6
			C49.2,24.2,47.7,20.4,45.2,17.2z M36,20.6c-3.3-2-5.7-5.2-6.3-9.1c-0.4-3,0.3-5.9,1.8-8.4c0.5,3.5,2.2,7.1,4.9,9.4l1,0.8l-0.3-1.6
			C37,10.1,36.9,8.6,37,7c1.3,3.3,3.8,6.2,6,8.9c1.8,2.2,3.4,4.4,4.4,7c0.5,1.4,0.9,2.8,1.1,4.2C45.1,24.1,39.9,22.9,36,20.6z"/>
		<path class="st6" d="M63.2,23.4C63.2,23.5,63.1,23.5,63.2,23.4c-0.4,0.2-0.7,0.3-1,0.4c1.6,1.8,3.3,3.6,3.7,6.1
			c0.5,2.8-0.7,5.4-3.3,6.6c-4.7,2.2-9.2-1.3-12.3-4.9l-0.5-0.7l-0.4,0.4c-3.9,3.6-9.6,8.1-14.7,3.8c-2.2-1.8-3-4.9-2.1-7.6
			c1-2.9,3.6-4.8,6.6-5.1c0.2,0,0.2-0.3,0-0.3c-6.6-0.2-10.3,7.8-6,12.9c2.1,2.5,5.3,3.3,8.4,2.6c3.3-0.8,6-3.1,8.3-5.5
			c1.4,2.1,3.2,3.9,5.5,5c2.6,1.2,5.7,1.5,8.3,0C69.1,34,67,27,63.2,23.4z"/>
		<path class="st6" d="M53.4,35.2c-0.8,1.1-1.8,2.1-2.8,3c-0.4,0.4-0.8,0.7-1.3,1c-1.1-1.4-2.4-2.8-3.6-4.2
			c-0.2-0.2-0.5,0.1-0.3,0.3c1,1.5,2,3,3.1,4.5l0.7,0.9L50,40c1.5-1.2,2.8-3,3.7-4.5C53.9,35.2,53.5,35,53.4,35.2z"/>
		<path class="st6" d="M75.3,43c-0.5-4.8-1.6-9.5-3.1-14.1c-1-2.9-2-5.8-3.6-8.5c-0.3,0.3-0.6,0.6-0.9,0.8c1.2,2.1,2,4.3,2.8,6.5
			c1.9,5.3,3.1,10.7,3.6,16.2c-4.5,3.4-9.6,5.9-15.3,7.2c-8.2,1.9-16.8,1.4-24.8-1.1c-3.9-1.3-7.5-3-11.1-5c0.3-2.5,0.6-5,1-7.5
			c0.6-3.4,1.5-6.9,2.9-10.1c1.5-3.5,3.6-6.6,6.4-9.1c-0.1-0.1-0.2-0.2-0.3-0.3c-0.2-0.2-0.3-0.4-0.5-0.6c-2.1,1.8-3.9,4-5.2,6.4
			c-1.9,3.4-3.1,7.2-3.8,11c-0.6,3.2-1,6.4-1.2,9.7l0,0.6l0.7,0.5c6.1,4.6,14,6.9,21.5,7.6c8.5,0.8,17.2-0.8,24.8-4.7
			c1.8-0.9,3.5-1.9,5.1-3.1l1.3-1L75.3,43z"/>
		<path class="st6" d="M41.3,13.3c0.1,0.1,0.1,0.2,0.2,0.2c4.9-1.6,10.3-1.8,15.4-0.4c1.5,0.4,3.1,1,4.5,1.8
			c0.1-0.4,0.3-0.7,0.5-1.1c-0.7-0.4-1.5-0.7-2.2-1.1c-6.3-2.5-13-2.4-18.9-0.3C40.9,12.8,41.1,13.1,41.3,13.3z"/>
		<path class="st6" d="M58.5,56.8c-7,2.1-11.8,8.2-18.6,10.5c-8.1,2.7-17-1.7-19.7-9.7c-1.4-4.1-1.2-9.3,2.2-12.3
			c0.2-0.1-0.1-0.4-0.2-0.3c-6.8,4.6-3.3,15.3,1.6,19.8c3.1,2.9,7.2,4.4,11.4,4.3c4.1-0.1,7.8-1.8,11.1-4c4-2.6,7.8-5.9,12.5-7.3
			C59.4,57.6,59.1,56.6,58.5,56.8z"/>
		<path class="st6" d="M59,57c-2.4-4.7-8.2-4.7-12.6-3.5c-5.1,1.4-12.4,5-16.7-0.2c-0.2-0.2-0.6,0.1-0.4,0.3
			c2.9,4.1,8.2,3.7,12.5,2.4c4.9-1.4,12.9-4.7,16.1,1.5C58.3,58.2,59.3,57.6,59,57z"/>
		<path class="st6" d="M68.4,50.1c-1.6,4.5-5.8,7.5-10.6,7.3c-0.7,0-0.7,1,0,1c5.2,0.2,9.8-3.1,11.1-8.2
			C69,49.9,68.5,49.7,68.4,50.1z"/>
		<path class="st6" d="M74.9,43.6c-0.6,0-0.6,1.1,0,1c2.5-0.3,2.4,4.1,2.4,5.7c-0.1,1.9-0.5,3.8-1.2,5.5c-1.4,3.6-4.1,6.5-7.4,8.5
			c-7,4.2-15.7,3.4-23,0.3c-0.3-0.1-0.5,0.3-0.2,0.4c8.1,4.5,18.4,4.7,25.9-1.2c3.4-2.7,5.8-6.5,6.7-10.7
			C78.5,50.7,79.1,43.3,74.9,43.6z"/>
		<path class="st6" d="M74,60.9c0-0.2-0.4-0.3-0.4-0.1c-0.4,2.7-0.6,5.4-0.8,8.1c-0.1,1.4-0.3,2.9-0.4,4.3c-2.4,0.9-5,1.3-7.7,1.6
			c-5.2,0.5-10.5,0.8-15.7,0.9c-5.2,0.1-10.5-0.2-15.7-1.1c-2.5-0.5-4.9-1.1-7.3-1.9c-1.1-0.4-2.2-0.8-3.2-1.3
			c0-0.7-0.1-1.4-0.1-2.2c-0.2-2.5-0.4-4.9-0.7-7.4c0-0.3-0.5-0.3-0.5,0c0,2.5,0,4.9,0,7.4c0,0.6,0,1.1,0,1.7l0,1.1l1.2,0.6
			c3.4,1.5,7.2,2.5,10.6,3.1c5.4,1,10.9,1.2,16.3,1.1c5.6-0.1,11.4-0.4,16.9-1.1c1.8-0.2,3.7-0.6,5.5-1.2l1.3-0.4l0.1-1.4
			c0-1.2,0.1-2.4,0.1-3.6C73.9,66.5,74.1,63.7,74,60.9z"/>
		<path class="st6" d="M32.9,55.9c-2.3-0.8-5,0.3-6.6,2c-1.8,1.8-2.4,4.4-2,6.9c0.1,0.6,1,0.3,0.9-0.2c-0.3-2.3,0.4-4.7,2.1-6.2
			c1.6-1.5,3.5-1.9,5.7-2.2C32.9,56.1,32.9,55.9,32.9,55.9z"/>
		<path class="st6" d="M69.6,57.2c-0.9-1.5-2.8-2.8-4.5-1.7c-0.1,0.1,0,0.2,0.1,0.2c2.2-0.6,3.6,1.5,4.2,3.3c0.6,1.7,0.5,3.3,0.1,5
			c-0.1,0.5,0.6,0.7,0.8,0.2C71.2,62,70.9,59.2,69.6,57.2z"/>
		<path class="st6" d="M67.8,75.1C67.8,75.1,67.8,75.1,67.8,75.1c-4,6.4-11.7,9.3-19.2,9.1C40,84,32.9,79.7,27.2,73.5
			c-0.1-0.1-0.3,0-0.2,0.2c4.6,7.3,13.7,11.4,22.2,11.5c8,0.1,16.3-3.3,20-10.5C68.8,74.8,68.3,75,67.8,75.1z"/>
		<path class="st7" d="M24.1,63.7c-1.7-1.7-3.1-3.8-4-6.2c-1.4-4-1.2-9.1,2-12.1l0.5,0.4c1.3,1,2.7,1.9,4.2,2.7
			c0.2,2.7,0.5,5.5,1,8.1c-0.6,0.4-1.2,0.8-1.7,1.3C24.7,59.5,24,61.6,24.1,63.7z M72.8,69c0.2-2.3,0.3-4.7,0.6-7
			c-0.6,0.7-1.3,1.3-2.1,1.9c-2.5,1.9-5.3,3.2-8.2,3.9c-3.5,4.8-8.6,8-16,8c-6.6,0-11.2-2.7-14.3-6.8c-3.4-0.4-6.6-1.9-9.2-4.2
			c-0.5-0.5-1.1-1.1-1.6-1.7c0.2,2.1,0.4,4.2,0.6,6.4c0.1,0.7,0.1,1.4,0.1,2.2c1.1,0.5,2.1,0.9,3.2,1.3c2.4,0.8,4.8,1.4,7.3,1.9
			c5.2,1,10.4,1.2,15.7,1.1c5.2-0.1,10.5-0.4,15.7-0.9c2.7-0.3,5.2-0.7,7.7-1.6C72.5,71.8,72.7,70.4,72.8,69z M69.6,57.2
			c1.1,1.7,1.5,3.8,1.1,5.8c2.4-1.9,4.3-4.3,5.4-7.1c0.7-1.8,1.1-3.6,1.2-5.5c0.1-1.5,0.1-5.5-1.9-5.7l-1.2,0.9
			c-1.4,1-2.8,1.9-4.3,2.7c-0.3,2.6-0.8,5.1-1.4,7.6C68.9,56.3,69.3,56.7,69.6,57.2z"/>
		<path class="st4" d="M26.9,47.2c-1.4-0.7-2.7-1.4-4.1-2.1c0.3-2.5,0.6-5,1-7.5c0.6-3.4,1.5-6.9,2.9-10.1c0.6-1.3,1.2-2.6,2-3.8
			C28,27.5,26.4,37.2,26.9,47.2z M70.1,46.7c1.4-0.8,2.7-1.7,4-2.6c-0.5-5.5-1.7-10.9-3.6-16.2c-0.1-0.2-0.2-0.5-0.2-0.7
			C70.5,31.3,70.9,38.8,70.1,46.7z"/>
		<path class="st4" d="M52.4,57.2C49,58,46.4,60,43.5,61.7c-2.9,1.6-6,2.7-9.3,1.9c-1.9-0.4-3.2-1.5-4.6-2.8
			c-0.5-0.5-1.2-1.1-1.4-1.8c-0.1-0.3-0.1-1-0.3-1.3c-0.2,0.2-0.5,0.4-0.7,0.6c-1.7,1.6-2.4,4-2.1,6.2c0,0,0,0,0,0.1
			c4,3.2,9.5,4.4,14.7,2.7c6.4-2.1,11-7.6,17.3-10C55.8,56.3,53.8,56.8,52.4,57.2z"/>
		<path class="st4" d="M68,56.5c-0.4,1-1.8,4.3-6.7,6.2c-5.8,2.2-8.1-0.6-8.1-0.6l3.4-3.5c-3.6,1.6-6.8,4.2-10.1,6.3
			c7.1,2.9,15.4,3.4,22.2-0.6c0.3-0.2,0.5-0.3,0.8-0.5c0.4-1.6,0.4-3.2-0.1-4.8C69.1,58.1,68.7,57.2,68,56.5z"/>
		<path class="st2" d="M71.7,14.9c-0.5,1.7-1.4,3.2-2.5,4.4c-1.3,1.4-3,2.5-5,3.3c-3.5,1.3-8.1,1.8-11.7,3.6
			c-0.4,0.2-0.8,0.4-1.2,0.6c2-3.6,5.9-6.1,8.7-9.2c2.1-2.2,3.4-5.1,3.7-8c0.3,0.7,0.5,1.4,0.7,2.2c0.2,1,0.3,2,0.2,2.9l-0.1,0.8
			l1.2-0.6c2.6-1.4,4.8-3.4,6.5-5.9C72.4,11.1,72.3,13,71.7,14.9z"/>
		<path class="st2" d="M48.6,27.2c-0.1-0.1-0.3-0.2-0.4-0.3c-3.5-2.9-8.4-4-12.3-6.3c-1.8-1.1-3.3-2.5-4.4-4.2
			c-1-1.5-1.6-3.1-1.9-4.9c-0.4-3,0.3-5.9,1.8-8.4c0.5,3.5,2.3,7.1,4.9,9.4l1,0.8l-0.3-1.6C37,10.1,36.9,8.6,37,7
			c1.3,3.3,3.8,6.2,6,8.9c1.8,2.2,3.4,4.4,4.4,7C48.1,24.4,48.4,25.8,48.6,27.2z"/>
		<path class="st8" d="M48.2,26.9c-3.5-2.9-8.4-4-12.3-6.3c-1.8-1.1-3.3-2.5-4.4-4.2c0-0.8,0-1.7,0.1-2.5c0.1-1,0.5-1.9,0.6-2.8
			c0.4,0.3,0.6,1.3,0.9,1.7c0.6,0.9,1,2,1.8,2.8c1.2,1.4,3,2.7,4.7,3.5c0.1-1.6-0.8-3.3-0.7-5c1,2.6,3.9,4.1,5.4,6.3
			c0.8,1.1,1.4,2.3,2.2,3.4C47,24.7,47.9,25.8,48.2,26.9z"/>
		<path class="st8" d="M69.3,19.3c-1.3,1.4-3,2.5-5,3.3c-3.5,1.3-8.1,1.8-11.7,3.6c0.1-0.2,0.2-0.4,0.3-0.5c1.1-1.2,2.7-2.4,4.2-3.1
			c2.5-1.1,4.2-3.2,5.6-5.4c0.3,1.2,0.2,2.8-0.4,3.9c1.2-1.1,2.8-1.5,4-2.5c1-0.8,1.7-1.8,2.6-2.7C69.3,16.6,69.3,18,69.3,19.3z"/>
		<path class="st1" d="M49.8,55.1c-5.7-0.7-10.5,4.3-16.2,2.5c-0.1,0-0.2,0.2-0.1,0.2c5.3,2.7,10.9-2.1,16.3-2.2
			C50.2,55.7,50.2,55.2,49.8,55.1z"/>
		<path class="st1" d="M65.2,57.4c-2.4,1.5-5.2,2.2-8.1,2.1c-0.2,0-0.3,0.4-0.1,0.4c3.1,0.7,6-0.2,8.4-2.2
			C65.7,57.6,65.4,57.3,65.2,57.4z"/>
	</g>
</g>
</svg>
