<?xml version="1.0" encoding="iso-8859-1"?>
<!-- Generator: Adobe Illustrator 19.0.0, SVG Export Plug-In . SVG Version: 6.00 Build 0)  -->
<svg version="1.1" id="Capa_1" xmlns="http://www.w3.org/2000/svg" xmlns:xlink="http://www.w3.org/1999/xlink" x="0px" y="0px"
	 viewBox="0 0 512 512" style="enable-background:new 0 0 512 512;" xml:space="preserve">
<ellipse style="fill:#CC7400;" cx="256" cy="256" rx="256" ry="229.421"/>
<path style="fill:#AA6100;" d="M111.675,240.547c0-96.928,67.073-179.814,161.893-213.421c-5.806-0.352-11.662-0.548-17.568-0.548
	C114.615,26.579,0,129.294,0,256s114.615,229.421,256,229.421c33.229,0,64.977-5.676,94.107-16.001
	C216.919,461.329,111.675,361.96,111.675,240.547z"/>
<path style="fill:#57E5D0;" d="M256,302.015l105.999-254.9C329.699,33.93,293.809,26.579,256,26.579s-73.699,7.351-105.999,20.537
	L256,302.015z"/>
<path style="fill:#28C6AF;" d="M273.555,27.131c-5.803-0.352-11.652-0.552-17.555-0.552c-37.809,0-73.699,7.351-105.999,20.537
	l19.872,47.788C197.242,65.086,232.839,41.565,273.555,27.131z"/>
<g>
	<path style="fill:#FFEB99;" d="M256,244.618l8.108-52.214c6.621-42.639,37.737-77.377,79.392-88.634l49.044-13.254
		c10.175-2.75,20.226-5.94,30.124-9.561l46.308-16.94c7.658-2.802,13.835,6.68,8.178,12.554l-57.039,59.21L256,244.618z"/>
	<path style="fill:#FFEB99;" d="M256,244.618l-8.108-52.214c-6.621-42.639-37.737-77.377-79.392-88.634l-49.044-13.254
		c-10.175-2.75-20.226-5.94-30.124-9.561l-46.308-16.94c-7.658-2.802-13.835,6.68-8.178,12.554l57.039,59.21L256,244.618z"/>
</g>
<path style="fill:#FFDA44;" d="M449.339,105.439c-18.498-8.377-38.877-13.304-60.31-13.973l-45.53,12.304
	c-41.655,11.258-72.771,45.996-79.392,88.634L256,244.618l164.113-108.84L449.339,105.439z"/>
<circle style="fill:#9A4C00;" cx="384" cy="250.282" r="128"/>
<path style="fill:#663A00;" d="M384,332.925c-45.568,0-82.641-37.073-82.641-82.641s37.073-82.641,82.641-82.641
	s82.641,37.072,82.641,82.641S429.568,332.925,384,332.925z"/>
<path style="fill:#57E5D0;" d="M365.195,295.683c-39.145,94.504-121.097,12.551-26.594-26.594c-94.504,39.145-94.504-76.754,0-37.61
	c-94.504-39.145-12.551-121.097,26.594-26.594c-39.145-94.504,76.754-94.504,37.61,0c39.145-94.504,121.097-12.551,26.594,26.594
	c94.504-39.145,94.504,76.754,0,37.61c94.504,39.145,12.551,121.097-26.594,26.594C441.95,390.185,326.05,390.185,365.195,295.683z"
	/>
<path style="fill:#28C6AF;" d="M429.399,231.479c12.581-5.211,22.032-11.181,28.876-17.392
	c-8.092-16.536-21.542-29.987-38.079-38.079c-6.211,6.843-12.18,16.295-17.392,28.876c5.215-12.59,7.657-23.485,8.102-32.721
	c-8.441-2.915-17.487-4.521-26.906-4.521c-9.419,0-18.466,1.606-26.906,4.521c0.445,9.236,2.887,20.131,8.102,32.721
	c-5.211-12.581-11.181-22.032-17.392-28.876c-16.536,8.091-29.988,21.542-38.079,38.079c6.843,6.211,16.295,12.181,28.876,17.392
	c-12.59-5.215-23.486-7.657-32.722-8.102c-2.915,8.441-4.521,17.487-4.521,26.906c0,9.419,1.606,18.466,4.521,26.907
	c9.236-0.445,20.131-2.887,32.722-8.102c-12.581,5.211-22.032,11.181-28.876,17.392c8.092,16.536,21.542,29.987,38.079,38.079
	c6.211-6.844,12.18-16.295,17.392-28.876c-5.215,12.59-7.657,23.486-8.102,32.721c8.441,2.915,17.487,4.521,26.906,4.521
	c9.419,0,18.466-1.606,26.906-4.521c-0.445-9.236-2.887-20.131-8.102-32.721c5.211,12.581,11.181,22.032,17.392,28.876
	c16.536-8.091,29.988-21.542,38.079-38.079c-6.843-6.211-16.295-12.18-28.876-17.392c12.59,5.215,23.486,7.657,32.722,8.102
	c2.915-8.441,4.521-17.487,4.521-26.907c0-9.419-1.606-18.466-4.521-26.906C452.884,223.821,441.989,226.264,429.399,231.479z"/>
<circle style="fill:#57565C;" cx="384" cy="250.282" r="51.736"/>
<circle style="fill:#FF5C5C;" cx="255.31" cy="109.714" r="24.381"/>
<path style="fill:#FF3333;" d="M255.313,109.714c0-9.022,4.905-16.895,12.19-21.111c-3.587-2.076-7.748-3.27-12.19-3.27
	c-13.465,0-24.381,10.916-24.381,24.381s10.916,24.381,24.381,24.381c4.442,0,8.603-1.194,12.19-3.27
	C260.219,126.609,255.313,118.737,255.313,109.714z"/>
<path style="fill:#FFDA44;" d="M62.661,105.439l29.226,30.339L256,244.618l-8.108-52.214c-6.621-42.639-37.737-77.377-79.392-88.634
	l-45.53-12.304C101.538,92.135,81.159,97.062,62.661,105.439z"/>
<circle style="fill:#9A4C00;" cx="128" cy="250.282" r="128"/>
<path style="fill:#663A00;" d="M128,332.925c-45.568,0-82.641-37.073-82.641-82.641S82.432,167.642,128,167.642
	s82.641,37.072,82.641,82.641S173.568,332.925,128,332.925z"/>
<path style="fill:#57E5D0;" d="M109.195,295.683c-39.145,94.504-121.097,12.551-26.594-26.594c-94.504,39.145-94.504-76.754,0-37.61
	c-94.504-39.145-12.551-121.097,26.594-26.594c-39.145-94.504,76.754-94.504,37.61,0c39.145-94.504,121.097-12.551,26.594,26.594
	c94.504-39.145,94.504,76.754,0,37.61c94.504,39.145,12.551,121.097-26.594,26.594C185.95,390.185,70.05,390.185,109.195,295.683z"
	/>
<path style="fill:#28C6AF;" d="M173.399,231.479c12.581-5.211,22.032-11.181,28.876-17.392
	c-8.092-16.536-21.542-29.987-38.079-38.079c-6.211,6.843-12.18,16.295-17.392,28.876c5.215-12.59,7.657-23.485,8.102-32.721
	c-8.441-2.915-17.487-4.521-26.906-4.521c-9.419,0-18.466,1.606-26.906,4.521c0.445,9.236,2.887,20.131,8.102,32.721
	c-5.211-12.581-11.181-22.032-17.392-28.876c-16.536,8.091-29.988,21.542-38.079,38.079c6.843,6.211,16.295,12.181,28.876,17.392
	c-12.59-5.215-23.486-7.657-32.722-8.102c-2.915,8.441-4.521,17.487-4.521,26.906c0,9.419,1.606,18.466,4.521,26.907
	c9.236-0.445,20.131-2.887,32.722-8.102c-12.581,5.211-22.032,11.181-28.876,17.392c8.092,16.536,21.542,29.987,38.079,38.079
	c6.211-6.844,12.18-16.295,17.392-28.876c-5.215,12.59-7.657,23.486-8.102,32.721c8.441,2.915,17.487,4.521,26.906,4.521
	s18.466-1.606,26.906-4.521c-0.445-9.236-2.887-20.131-8.102-32.721c5.211,12.581,11.181,22.032,17.392,28.876
	c16.536-8.091,29.988-21.542,38.079-38.079c-6.844-6.211-16.295-12.18-28.876-17.392c12.59,5.215,23.486,7.657,32.722,8.102
	c2.915-8.441,4.521-17.487,4.521-26.907c0-9.419-1.606-18.466-4.521-26.906C196.884,223.821,185.989,226.264,173.399,231.479z"/>
<circle style="fill:#57565C;" cx="128" cy="250.282" r="51.736"/>
<path style="fill:#FFE477;" d="M293.413,282.032c0,20.663-16.751,77.389-37.413,77.389c-20.662,0-37.413-56.727-37.413-77.389
	s16.751-37.413,37.413-37.413C276.662,244.619,293.413,261.368,293.413,282.032z"/>
<path style="fill:#FFDA44;" d="M272.14,248.271c-4.887-2.341-10.359-3.653-16.14-3.653c-20.663,0-37.413,16.751-37.413,37.413
	S235.338,359.42,256,359.42c5.779,0,11.253-4.44,16.14-11.287c-12.583-17.628-21.274-51.22-21.274-66.103
	C250.866,267.149,259.556,254.297,272.14,248.271z"/>
<path style="fill:#FFEB99;" d="M257.507,64.244c-2.076,0.577-4.344,0.298-6.226-0.757c-1.885-1.065-3.292-2.865-3.871-4.951
	c-0.577-2.076-0.299-4.344,0.766-6.228c1.065-1.885,2.865-3.292,4.941-3.869c2.086-0.579,4.354-0.302,6.239,0.764
	c1.875,1.068,3.282,2.868,3.859,4.944c0.579,2.086,0.301,4.354-0.754,6.236C261.392,62.256,259.593,63.664,257.507,64.244z"/>
<g>
</g>
<g>
</g>
<g>
</g>
<g>
</g>
<g>
</g>
<g>
</g>
<g>
</g>
<g>
</g>
<g>
</g>
<g>
</g>
<g>
</g>
<g>
</g>
<g>
</g>
<g>
</g>
<g>
</g>
</svg>
